# xmcd
# Copyright (C) 1995-1998 Ti Kan
#
# Track frame offsets:
#       150
#       10832
#       26348
#       37500
#       49957
#       62566
#       77836
#       88333
#       102163
#       113257
#       123959
#       138337
#       151483
#       163180
#       175123
#       185933
#
# Disc length: 2650 seconds
#
# Revision: 0
# Processed by: cddbd v1.5.1PL2 Copyright (c) Steve Scherf et al.
# Submitted via: CD-Transfer v1.0
#
DISCID=c40a5810
DTITLE=X-Verschiedene - Du Lieber Schöner Weihnachtsbaum
DYEAR=05
DGENRE=
TTITLE0=Freu, Dich Erd Und Himmelszeit
TTITLE1=Du Lieber Schöner Weihnachtsbaum
TTITLE2=Lasst Uns Das Kindlein Wiegen
TTITLE3=Die Nacht Vor Dem Heiligen Abend
TTITLE4=Schlittenfahrt Am Heiligenabend
TTITLE5=Die Lange Leiter Zu Den Sternen
TTITLE6=Frau Holle
TTITLE7=O Weihnachtszeit
TTITLE8=Im Walde Steht Ein Tannenbaum
TTITLE9=Frohlocket, Ihr Kinder
TTITLE10=Hurra, Der Erste Schnee
TTITLE11=Nun Singet Und Seit Froh
TTITLE12=Der Schneemann Auf Der Strasse
TTITLE13=Wir Wollen Ein Liedchen Singen
TTITLE14=Mit Den Hirten Will Ich Gehen
TTITLE15=Ein Engel Gottes Geht Bei Nacht
EXTD=
EXTT0=
EXTT1=
EXTT2=
EXTT3=
EXTT4=
EXTT5=
EXTT6=
EXTT7=
EXTT8=
EXTT9=
EXTT10=
EXTT11=
EXTT12=
EXTT13=
EXTT14=
EXTT15=
PLAYORDER=
